<svg width="300" height="300" viewBox="0 0 152 153" fill="none" xmlns="http://www.w3.org/2000/svg">
<path d="M65.6509 0.428816C65.6529 0.334044 65.6917 0.24383 65.7589 0.17754C65.8262 0.111251 65.9164 0.0741502 66.0105 0.0741726L86.7182 0.0662842C87.0413 0.0662842 87.2029 0.229173 87.2029 0.554911C87.328 12.6125 87.3436 24.1867 87.2498 35.2775C87.1638 46.3106 87.3592 54.5775 96.0754 61.3313C99.5853 64.0422 105.62 65.2165 109.959 65.2401C123.816 65.3084 137.66 65.2927 151.491 65.1928C151.552 65.1928 151.612 65.2049 151.668 65.2282C151.724 65.2516 151.775 65.2858 151.818 65.329C151.86 65.3722 151.894 65.4235 151.918 65.4799C151.941 65.5363 151.953 65.5967 151.953 65.6578L152 86.3605C152 86.4492 151.982 86.5369 151.948 86.6187C151.914 86.7005 151.865 86.7747 151.802 86.837C151.74 86.8993 151.666 86.9485 151.584 86.9817C151.502 87.0149 151.415 87.0314 151.327 87.0304C137.877 86.899 125.202 86.8964 113.305 87.0225C107.072 87.0855 102.225 86.7178 98.7645 85.9192C92.2867 84.4166 86.0824 81.3142 80.1518 76.6121C76.7356 73.909 74.7032 70.796 72.4128 67.2339C67.9882 60.3619 65.7421 52.4129 65.6743 43.3868C65.5649 28.6025 65.5571 14.2832 65.6509 0.428816Z" fill="#2C74FF"/>
<path d="M15.3079 60.1964L0.463075 60.2515C0.421359 60.2526 0.37987 60.2452 0.341026 60.2298C0.302182 60.2145 0.266787 60.1914 0.236918 60.162C0.207049 60.1327 0.183315 60.0976 0.167115 60.0588C0.150914 60.02 0.142577 59.9784 0.14259 59.9363C0.153013 47.6686 0.1504 35.5217 0.134766 23.4957C0.134766 19.4135 0.416181 14.9766 1.98744 11.3436C2.37309 10.4609 3.02191 9.52575 3.93391 8.53803C5.07001 7.31388 6.04716 6.1922 6.86536 5.17295C10.9355 1.7422 15.2715 0.0215772 19.8732 0.0110696C33.0895 -0.0151996 46.264 0.00580514 59.3969 0.074105C59.54 0.074105 59.6772 0.132219 59.7784 0.235674C59.8795 0.339129 59.9363 0.47946 59.9363 0.625767V21.3127C59.9363 21.4653 59.8762 21.6116 59.7692 21.7195C59.6622 21.8274 59.517 21.888 59.3657 21.888L22.7421 21.8802C22.2835 21.8802 22.0516 22.1113 22.0464 22.5736L22.0073 59.6999C22.0073 59.8378 21.9529 59.9701 21.8562 60.0677C21.7594 60.1652 21.6282 60.22 21.4914 60.22L15.3079 60.1964Z" fill="#00D0B4"/>
<path d="M132.713 32.4719C134.089 38.3194 132.549 44.9944 127.929 49.1633C126.585 50.3691 125.389 52.0477 123.802 52.8358C119.846 54.8007 115.526 55.2158 110.841 54.0809C105.814 52.8594 101.171 46.6494 99.0838 42.7642C96.9497 38.7765 97.4656 32.464 99.9202 28.5158C104.267 21.5413 110.708 17.8216 118.705 19.2165C126.277 20.5299 130.947 24.9484 132.713 32.4719Z" fill="#2C74FF"/>
<path d="M30.9367 43.489C30.8334 50.9483 36.5168 57.0764 43.6311 57.1766C50.7453 57.2767 56.5963 51.311 56.6996 43.8516C56.803 36.3923 51.1195 30.2642 44.0052 30.164C36.891 30.0639 31.04 36.0296 30.9367 43.489Z" fill="#00D0B4"/>
<path d="M16.7779 65.2482C25.2986 65.2272 33.8168 65.2298 42.3323 65.256C46.8246 65.2718 50.4778 65.5765 53.292 66.1702C57.1433 66.9845 60.4734 68.1745 63.2824 69.7402C69.5727 73.2445 75.3391 78.5535 80.5818 85.6672C82.8488 88.7486 84.1699 92.4683 85.4207 95.9752C86.6506 99.4165 87.2812 103.365 87.3125 107.82C87.4323 122.862 87.4245 137.738 87.289 152.449C87.2869 152.596 87.2276 152.736 87.1237 152.839C87.0199 152.942 86.8799 153 86.734 153L66.7141 152.969C66.4197 152.969 66.1374 152.851 65.9292 152.641C65.721 152.431 65.6041 152.147 65.6041 151.85C65.5937 137.927 65.5989 123.3 65.6198 107.97C65.6198 105.443 64.9709 102.787 63.6733 100.002C62.902 98.3473 61.7711 96.8027 60.2806 95.3684C57.3022 92.5235 53.9096 88.985 49.9775 87.9053C47.6376 87.2643 44.9224 86.9465 41.832 86.9518C28.4125 86.9623 14.6229 86.957 0.463396 86.936C0.291418 86.936 0.161131 86.8598 0.0725361 86.7075C-0.0473276 86.5078 -0.0186282 86.2425 0.158562 85.9115L0.236714 65.5713C0.236714 65.3086 0.369614 65.1772 0.635399 65.1772L16.7779 65.2482Z" fill="#00D0B4"/>
<path d="M129.761 131.044C130.24 130.992 130.48 130.724 130.48 130.24L130.386 93.2875C130.385 93.2289 130.396 93.1706 130.418 93.1162C130.44 93.0617 130.472 93.0122 130.514 92.9703C130.555 92.9285 130.605 92.8953 130.659 92.8726C130.714 92.85 130.773 92.8383 130.832 92.8383L151.586 92.8461C151.686 92.8461 151.781 92.8868 151.852 92.9592C151.922 93.0316 151.962 93.1299 151.962 93.2323C151.998 105.442 151.977 117.676 151.899 129.933C151.876 133.952 151.735 138.413 149.742 142.061C148.272 144.765 145.755 148.098 143.269 149.848C140.403 151.86 136.947 152.876 132.903 152.897C120.052 152.955 106.679 152.963 92.7854 152.921C92.6755 152.921 92.5702 152.877 92.4925 152.799C92.4148 152.72 92.3711 152.614 92.3711 152.503L92.4024 131.816C92.4024 131.307 92.6577 131.055 93.1685 131.06C104.243 131.197 115.338 131.254 126.454 131.233C127.554 131.233 128.656 131.17 129.761 131.044Z" fill="#2C74FF"/>
<path d="M108.502 122.056C115.934 122.24 122.1 116.579 122.274 109.412C122.447 102.246 116.563 96.2881 109.131 96.105C101.699 95.9219 95.533 101.583 95.3593 108.749C95.1855 115.915 101.07 121.873 108.502 122.056Z" fill="#2C74FF"/>
<path d="M19.1856 114.227C19.6025 110.618 20.4806 107.954 21.8199 106.236C24.1651 103.233 28.4802 99.7421 32.381 98.8279C37.1651 97.7036 41.6391 98.2316 45.8031 100.412C47.9867 101.547 49.9697 103.391 51.752 105.944C53.2008 108.009 54.0372 110.51 54.2613 113.447C54.8007 120.445 53.292 124.456 48.6955 129.484C43.8332 134.804 34.5933 135.292 28.574 131.959C25.9865 130.524 24.1025 127.979 22.1952 125.764C19.6467 122.806 18.6436 118.961 19.1856 114.227Z" fill="#00D0B4"/>
</svg>
